<?xml version="1.0" encoding="iso-8859-1"?>
<!-- Generator: Adobe Illustrator 19.0.0, SVG Export Plug-In . SVG Version: 6.00 Build 0)  -->
<svg version="1.1" id="Layer_1" xmlns="http://www.w3.org/2000/svg" xmlns:xlink="http://www.w3.org/1999/xlink" x="0px" y="0px"
	 viewBox="0 0 473.931 473.931" style="enable-background:new 0 0 473.931 473.931;" xml:space="preserve">
<circle style="fill:#49A0AE;" cx="236.966" cy="236.966" r="236.966"/>
<path style="fill:#99AEB2;" d="M428.978,177.498c0.18-2.38-58.226,77.331-71.093,77.331c-1.22,0-145.51,44.426-146.554,46.147
	c0,0-65.844,86.06-60.489,86.06C334.188,387.036,417.753,327.789,428.978,177.498z"/>
<path style="fill:#A6BEC4;" d="M418.467,133.375c-36.512-59.034-147.901-77.294-152.626-78.038
	c-2.245-0.363-4.471,0.677-5.661,2.608c-1.186,1.934-1.093,4.389,0.236,6.23l38.361,52.972l1.751,22.742
	c0.135,1.785,1.115,3.398,2.638,4.34c1.519,0.943,3.405,1.1,5.063,0.434c16.131-6.529,31.393-9.837,45.373-9.837
	c36.639,0,54.128,22.342,57.511,27.229c1.628,13.126-1.152,23.625-8.479,32.074c-15.42,17.777-47.333,21.276-61.69,21.93
	l9.609-21.968c0.797-1.822,0.569-3.929-0.595-5.542c-1.164-1.609-3.05-2.481-5.078-2.294l-77.342,7.368l-30.638-10.814
	c-1.437-0.505-3.012-0.408-4.378,0.273c-1.358,0.681-2.387,1.886-2.844,3.338l-19.461,61.915
	c-72.676,7.749-130.427,75.411-132.892,78.337c-1.246,1.482-1.643,3.502-1.044,5.343c0.595,1.841,2.099,3.248,3.977,3.716
	c0,0,24.437-1.703,57.488,8.277l-53.01,22.451c-2.574,1.007-4.037,3.738-3.442,6.44c0.595,2.702,3.042,4.576,5.833,4.393l60.265,0.7
	c-0.935,1.8-0.853,3.233-0.314,4.786c0.842,2.436,3.124,4.011,5.815,4.011c2.095,0,5.152-0.655,19.386-8.565
	c29.597-16.441,37.665-50.727,39.678-63.333c171.608-16.337,211.858-111.265,213.501-115.336c0.056-0.135,0.105-0.273,0.15-0.412
	C433.124,175.316,430.721,153.191,418.467,133.375z"/>
<circle style="fill:#232323;" cx="150.531" cy="305.664" r="11.536"/>
<g>
</g>
<g>
</g>
<g>
</g>
<g>
</g>
<g>
</g>
<g>
</g>
<g>
</g>
<g>
</g>
<g>
</g>
<g>
</g>
<g>
</g>
<g>
</g>
<g>
</g>
<g>
</g>
<g>
</g>
</svg>
